<svg xmlns="http://www.w3.org/2000/svg" xmlns:xlink="http://www.w3.org/1999/xlink" version="1.1" xml:space="preserve" viewBox="0 0 1080 1080">
<desc>Created with Fabric.js 5.2.4</desc>
<defs>
</defs>
<g transform="matrix(1 0 0 1 540 540)" id="2fd7d7e0-8cde-44da-bb67-3a35f07f1861">
<rect style="stroke: none; stroke-width: 1; stroke-dasharray: none; stroke-linecap: butt; stroke-dashoffset: 0; stroke-linejoin: miter; stroke-miterlimit: 4; fill: rgb(255,255,255); fill-rule: nonzero; opacity: 1; visibility: hidden;" vector-effect="non-scaling-stroke" x="-540" y="-540" rx="0" ry="0" width="1080" height="1080"/>
</g>
<g transform="matrix(1 0 0 1 540 540)" id="0e384227-4d8c-48b3-9b85-f6dd1f3a1a06">
</g>
<g transform="matrix(8 0 0 8 160 540)">
<path style="stroke: none; stroke-width: 1; stroke-dasharray: none; stroke-linecap: butt; stroke-dashoffset: 0; stroke-linejoin: miter; stroke-miterlimit: 4; fill: rgb(255,255,255); fill-opacity: 0.1; fill-rule: nonzero; opacity: 1;" vector-effect="non-scaling-stroke" transform=" translate(-20, -20)" d="M 19.9999 40 C 31.0456 40 39.9999 31.0457 39.9999 20 C 39.9999 8.9543 31.0456 0 19.9999 0 C 8.95424 0 -0.0000610352 8.9543 -0.0000610352 20 C -0.0000610352 31.0457 8.95424 40 19.9999 40 Z" stroke-linecap="round"/>
</g>
<g transform="matrix(8 0 0 8 106.14 539.91)">
<path style="stroke: none; stroke-width: 1; stroke-dasharray: none; stroke-linecap: butt; stroke-dashoffset: 0; stroke-linejoin: miter; stroke-miterlimit: 4; fill: rgb(255,255,255); fill-rule: nonzero; opacity: 1;" vector-effect="non-scaling-stroke" transform=" translate(-13.27, -19.99)" d="M 18.8424 28.0463 C 14.9124 27.4707 11.8964 24.0828 11.8964 19.9891 C 11.8964 15.8954 14.9124 12.5075 18.8424 11.9322 L 18.8424 7.69238 C 12.5855 8.29084 7.69232 13.5677 7.69232 19.9891 C 7.69232 26.4104 12.5855 31.687 18.8424 32.2858 L 18.8424 28.0463 Z" stroke-linecap="round"/>
</g>
<g transform="matrix(8 0 0 8 235.54 520.99)">
<path style="stroke: none; stroke-width: 1; stroke-dasharray: none; stroke-linecap: butt; stroke-dashoffset: 0; stroke-linejoin: miter; stroke-miterlimit: 4; fill: rgb(255,255,255); fill-rule: nonzero; opacity: 1;" vector-effect="non-scaling-stroke" transform=" translate(-29.44, -17.62)" d="M 26.9983 12 L 26.8892 12.3711 L 26.8892 23.1393 L 26.9983 23.2483 L 31.9968 20.2937 L 26.9983 12 Z" stroke-linecap="round"/>
</g>
<g transform="matrix(8 0 0 8 195.99 520.99)">
<path style="stroke: none; stroke-width: 1; stroke-dasharray: none; stroke-linecap: butt; stroke-dashoffset: 0; stroke-linejoin: miter; stroke-miterlimit: 4; fill: rgb(255,255,255); fill-rule: nonzero; opacity: 1;" vector-effect="non-scaling-stroke" transform=" translate(-24.5, -17.62)" d="M 26.9984 12 L 21.9999 20.2937 L 26.9984 23.2483 L 26.9984 18.0217 L 26.9984 12 Z" stroke-linecap="round"/>
</g>
<g transform="matrix(8 0 0 8 235.75 583.54)">
<path style="stroke: none; stroke-width: 1; stroke-dasharray: none; stroke-linecap: butt; stroke-dashoffset: 0; stroke-linejoin: miter; stroke-miterlimit: 4; fill: rgb(255,255,255); fill-rule: nonzero; opacity: 1;" vector-effect="non-scaling-stroke" transform=" translate(-29.47, -25.44)" d="M 26.9986 24.8742 L 26.9371 24.9492 L 26.9371 28.7851 L 26.9986 28.9648 L 32.0001 21.9211 L 26.9986 24.8742 Z" stroke-linecap="round"/>
</g>
<g transform="matrix(8 0 0 8 195.99 583.54)">
<path style="stroke: none; stroke-width: 1; stroke-dasharray: none; stroke-linecap: butt; stroke-dashoffset: 0; stroke-linejoin: miter; stroke-miterlimit: 4; fill: rgb(255,255,255); fill-rule: nonzero; opacity: 1;" vector-effect="non-scaling-stroke" transform=" translate(-24.5, -25.44)" d="M 26.9984 28.9648 L 26.9984 24.8742 L 21.9999 21.9211 L 26.9984 28.9648 Z" stroke-linecap="round"/>
</g>
<g transform="matrix(8 0 0 8 235.98 545.08)">
<path style="stroke: none; stroke-width: 1; stroke-dasharray: none; stroke-linecap: butt; stroke-dashoffset: 0; stroke-linejoin: miter; stroke-miterlimit: 4; fill: rgb(255,255,255); fill-rule: nonzero; opacity: 1;" vector-effect="non-scaling-stroke" transform=" translate(-29.5, -20.63)" d="M 26.9984 23.2482 L 31.9968 20.2937 L 26.9984 18.0217 L 26.9984 23.2482 Z" stroke-linecap="round"/>
</g>
<g transform="matrix(8 0 0 8 195.99 545.08)">
<path style="stroke: none; stroke-width: 1; stroke-dasharray: none; stroke-linecap: butt; stroke-dashoffset: 0; stroke-linejoin: miter; stroke-miterlimit: 4; fill: rgb(255,255,255); fill-rule: nonzero; opacity: 1;" vector-effect="non-scaling-stroke" transform=" translate(-24.5, -20.63)" d="M 21.9999 20.2937 L 26.9983 23.2482 L 26.9983 18.0217 L 21.9999 20.2937 Z" stroke-linecap="round"/>
</g>
</svg>